<svg id="Calque_1" data-name="Calque 1" xmlns="http://www.w3.org/2000/svg" viewBox="0 0 657.39 756.66"><defs><style>.cls-1{fill:none;}.cls-1,.cls-2{stroke:#27adff;stroke-linecap:round;stroke-linejoin:round;stroke-width:14px;}.cls-2{fill:#fff;}</style></defs><title>Sans titre - 1</title><path class="cls-1" d="M399.92,774.1c-27.19.53-34.28-4.9-34.28-4.9C318.29,622.28,78.31,504.74,78.31,504.74L194.77,246" transform="translate(-71.31 -24.48)"/><path class="cls-1" d="M400.08,774.1c27.19,0.53,34.28-4.9,34.28-4.9,47.34-146.93,287.33-264.47,287.33-264.47L599.15,246" transform="translate(-71.31 -24.48)"/><path class="cls-1" d="M396.91,415.28c-17.09.33-21.55-3.08-21.55-3.08C345.6,319.85,194.77,246,194.77,246" transform="translate(-71.31 -24.48)"/><path class="cls-1" d="M397,415.28c17.09,0.33,21.55-3.08,21.55-3.08C448.31,319.85,599.15,246,599.15,246" transform="translate(-71.31 -24.48)"/><polyline class="cls-2" points="294.33 744.73 190.53 383.72 254.37 211.24 304.05 387.72"/><polyline class="cls-2" points="361.25 746.61 469.75 380.9 405.91 208.42 347.25 387.72"/><circle class="cls-2" cx="328.69" cy="107.48" r="100.48"/><polyline class="cls-2" points="390.35 68.34 328.69 107.48 328.69 172.52"/></svg>